:FULLY-SPECIFIED
:FORCE-ALL-JOINTS-BE-3DOF
:DEGREES
2548
root 4.00084 13.7694 -23.7192 1046.9 87.4249 -34.5158
lfemur -35.9097 1.70006 -14.9424
ltibia 86.7575 0 0
lfoot -22.9041 31.0944 0
ltoes -45.7771 0 0
rfemur -56.4179 -21.7484 9.09453
rtibia 46.4688 0 0
rfoot 6.74261 4.08137 0
rtoes 6.64279 0 0
lowerback 17.4873 -0.505924 -3.65981
upperback -0.320849 -1.03867 3.1478
thorax -10.0792 -0.183587 5.81183
lowerneck 5.28915 -14.3483 -15.2639
upperneck -0.103809 -20.0958 14.8136
head 2.17248 -10.2029 6.23596
lclavicle -2.07233e-14 1.82882e-14 0
lhumerus -47.8338 -47.0758 112.875
lradius 105.063 0 0
lwrist 79.1487 0 0
lhand 6.91515 400.32 0
lfingers 7.12502 0 0
lthumb 32.1949 -652.514 0
rclavicle -2.07233e-14 1.82882e-14 0
rhumerus 10.5271 -12.1071 -59.4228
rradius 73.6049 0 0
rwrist 13.7639 0 0
rhand -35.4848 -405.463 0
rfingers 7.12502 0 0
rthumb -8.61262 284.732 0
2549
root 3.94602 13.8019 -23.8491 1063.56 86.3371 -17.6461
lfemur -35.928 1.71079 -14.979
ltibia 86.3235 0 0
lfoot -22.5172 31.3485 0
ltoes -46.165 0 0
rfemur -56.6587 -21.464 9.9644
rtibia 45.5445 0 0
rfoot 6.80359 4.04894 0
rtoes 6.08596 0 0
lowerback 17.7476 -0.491237 -4.00099
upperback -0.162749 -1.09174 3.16648
thorax -10.0379 -0.193917 6.04836
lowerneck 5.31201 -14.2867 -15.3649
upperneck -0.0311793 -20.0271 14.8521
head 2.19431 -10.1699 6.26569
lclavicle 6.65929e-15 -1.98785e-14 0
lhumerus -46.267 -47.5027 112.378
lradius 104.385 0 0
lwrist 78.6622 0 0
lhand 5.99649 400.39 0
lfingers 7.12502 0 0
lthumb 31.32 -652.27 0
rclavicle 6.65929e-15 -1.98785e-14 0
rhumerus 11.3313 -10.8831 -59.214
rradius 73.9224 0 0
rwrist 9.82427 0 0
rhand -34.3282 -404.485 0
rfingers 7.12502 0 0
rthumb -7.49637 285.668 0
2550
root 3.89319 13.8344 -23.9859 1073.5 85.0017 -7.42388
lfemur -35.9813 1.74196 -15.0855
ltibia 85.8673 0 0
lfoot -22.2275 31.5388 0
ltoes -46.5361 0 0
rfemur -56.9525 -21.117 11.0257
rtibia 44.7515 0 0
rfoot 6.69803 3.89174 0
rtoes 5.4402 0 0
lowerback 18.0528 -0.516278 -4.32661
upperback -0.00628117 -1.21048 3.06841
thorax -10.0158 -0.240168 6.16496
lowerneck 5.1318 -14.2786 -15.2805
upperneck 0.320545 -20.0117 14.7351
head 2.30353 -10.1528 6.19413
lclavicle -1.39149e-14 1.19271e-14 0
lhumerus -44.6313 -47.8555 111.658
lradius 103.653 0 0
lwrist 77.9713 0 0
lhand 6.44487 400.445 0
lfingers 7.12502 0 0
lthumb 31.7471 -652.299 0
rclavicle -1.39149e-14 1.19271e-14 0
rhumerus 12.0523 -9.40801 -59.0203
rradius 74.49 0 0
rwrist 5.82131 0 0
rhand -33.3824 -403.884 0
rfingers 7.12502 0 0
rthumb -6.58339 286.238 0
2551
root 3.8419 13.8722 -24.1304 1077.93 83.3645 -2.81795
lfemur -36.067 1.79207 -15.2567
ltibia 85.3933 0 0
lfoot -22.0458 31.6581 0
ltoes -46.886 0 0
rfemur -57.2923 -20.7158 12.2528
rtibia 44.1061 0 0
rfoot 6.39521 3.44077 0
rtoes 4.71822 0 0
lowerback 18.2457 -0.517811 -4.66981
upperback 0.16141 -1.28748 3.07361
thorax -9.91986 -0.265828 6.3916
lowerneck 4.85866 -14.2997 -15.423
upperneck 0.777835 -20.0535 14.8342
head 2.51344 -10.1612 6.19559
lclavicle 3.23025e-14 -1.35174e-14 0
lhumerus -42.8242 -48.0732 110.891
lradius 102.847 0 0
lwrist 77.2672 0 0
lhand 5.7094 400.153 0
lfingers 7.12502 0 0
lthumb 31.0464 -652.455 0
rclavicle 3.23025e-14 -1.35174e-14 0
rhumerus 12.9006 -7.90049 -58.869
rradius 75.2194 0 0
rwrist 1.53099 0 0
rhand -32.3304 -402.63 0
rfingers 7.12502 0 0
rthumb -5.56777 287.463 0
2552
root 3.79253 13.9055 -24.2838 1081.98 81.5396 1.29475
lfemur -36.1824 1.85959 -15.4874
ltibia 84.9059 0 0
lfoot -21.9828 31.6995 0
ltoes -47.2106 0 0
rfemur -57.6709 -20.2687 13.6204
rtibia 43.6248 0 0
rfoot 5.91588 2.72695 0
rtoes 3.93273 0 0
lowerback 18.3891 -0.433872 -5.18754
upperback 0.23981 -1.29862 3.01368
thorax -9.90242 -0.250216 6.63162
lowerneck 4.78092 -14.3116 -15.5164
upperneck 1.00835 -20.0839 14.8676
head 2.61155 -10.1724 6.19855
lclavicle -8.64713e-15 -1.63003e-14 0
lhumerus -41.2666 -48.3419 110.292
lradius 102.085 0 0
lwrist 76.5716 0 0
lhand 5.40205 400.378 0
lfingers 7.12502 0 0
lthumb 30.7534 -652.174 0
rclavicle -8.64713e-15 -1.63003e-14 0
rhumerus 13.5259 -6.07874 -58.3917
rradius 76.2495 0 0
rwrist -2.37414 0 0
rhand -31.5374 -402.691 0
rfingers 7.12502 0 0
rthumb -4.80202 287.383 0
2553
root 3.74578 13.9462 -24.4393 1082.89 79.466 2.26501
lfemur -36.325 1.94301 -15.7723
ltibia 84.4095 0 0
lfoot -22.0234 31.7157 0
ltoes -47.5057 0 0
rfemur -58.0814 -19.784 15.1027
rtibia 43.324 0 0
rfoot 5.28081 1.78119 0
rtoes 3.09643 0 0
lowerback 18.3971 -0.298843 -5.26873
upperback 0.360865 -1.1575 2.81727
thorax -9.79558 -0.192928 6.41846
lowerneck 4.90586 -14.4058 -15.2718
upperneck 1.02539 -20.2192 14.9819
head 2.60521 -10.2433 6.19638
lclavicle 2.11706e-14 -1.11319e-14 0
lhumerus -39.9206 -48.9675 109.62
lradius 101.337 0 0
lwrist 75.9974 0 0
lhand 5.37481 399.361 0
lfingers 7.12502 0 0
lthumb 30.7274 -653.186 0
rclavicle 2.11706e-14 -1.11319e-14 0
rhumerus 13.914 -4.4282 -58.1502
rradius 77.5166 0 0
rwrist -5.83071 0 0
rhand -30.8816 -402.993 0
rfingers 7.12502 0 0
rthumb -4.16879 287.068 0
2554
root 3.70024 13.9904 -24.5993 1083.51 77.1642 2.826
lfemur -36.4923 2.04082 -16.1065
ltibia 83.9088 0 0
lfoot -22.1409 31.7627 0
ltoes -47.7669 0 0
rfemur -58.5165 -19.2701 16.6744
rtibia 43.2201 0 0
rfoot 4.51077 0.634437 0
rtoes 2.22201 0 0
lowerback 18.4732 -0.154705 -5.55318
upperback 0.37518 -1.0355 2.79104
thorax -9.83679 -0.121206 6.52545
lowerneck 4.88969 -14.4459 -15.411
upperneck 1.11239 -20.2914 15.0951
head 2.6708 -10.2789 6.23406
lclavicle -7.45443e-15 4.77083e-15 0
lhumerus -38.6159 -49.0919 109.058
lradius 100.66 0 0
lwrist 75.2487 0 0
lhand 5.38999 400.033 0
lfingers 7.12502 0 0
lthumb 30.7419 -652.517 0
rclavicle -7.45443e-15 4.77083e-15 0
rhumerus 14.4652 -2.31799 -57.8551
rradius 78.8742 0 0
rwrist -8.32394 0 0
rhand -30.307 -402.805 0
rfingers 7.12502 0 0
rthumb -3.61395 287.246 0
2555
root 3.65516 14.0354 -24.7653 1083.59 74.6572 2.75456
lfemur -36.6815 2.15151 -16.4846
ltibia 83.408 0 0
lfoot -22.3286 31.8377 0
ltoes -47.9901 0 0
rfemur -58.9693 -18.7354 18.31
rtibia 43.4079 0 0
rfoot 3.62653 -0.682401 0
rtoes 1.32219 0 0
lowerback 18.5157 -0.012518 -5.85612
upperback 0.37661 -0.910408 2.8475
thorax -9.87376 -0.0444394 6.73412
lowerneck 4.82441 -14.4445 -15.5597
upperneck 1.10807 -20.2919 15.1324
head 2.69902 -10.2778 6.25792
lclavicle -7.30534e-14 3.93594e-14 0
lhumerus -37.4048 -48.9987 108.548
lradius 100.061 0 0
lwrist 74.7421 0 0
lhand 5.19809 400.088 0
lfingers 7.12502 0 0
lthumb 30.5589 -652.427 0
rclavicle -7.30534e-14 3.93594e-14 0
rhumerus 15.505 0.0592978 -57.0619
rradius 80.0838 0 0
rwrist -10.384 0 0
rhand -29.4995 -402.322 0
rfingers 7.12502 0 0
rthumb -2.83408 287.717 0
2556
root 3.60577 14.0864 -24.9403 1083.52 71.9333 2.39452
lfemur -36.8901 2.27355 -16.9015
ltibia 82.9116 0 0
lfoot -22.5797 31.9381 0
ltoes -48.1711 0 0
rfemur -59.4328 -18.1882 19.9837
rtibia 43.9536 0 0
rfoot 2.64884 -2.1384 0
rtoes 0.40966 0 0
lowerback 18.5304 0.137109 -6.05231
upperback 0.332434 -0.756319 2.87578
thorax -9.95405 0.0428657 6.84202
lowerneck 4.7305 -14.4346 -15.6074
upperneck 1.02526 -20.2657 15.163
head 2.69365 -10.2625 6.27057
lclavicle -4.72114e-14 5.96354e-15 0
lhumerus -36.3917 -48.8065 108.062
lradius 99.6014 0 0
lwrist 74.46 0 0
lhand 4.961 400.206 0
lfingers 7.12502 0 0
lthumb 30.3328 -652.268 0
rclavicle -4.72114e-14 5.96354e-15 0
rhumerus 16.4676 2.54969 -56.4908
rradius 81.5362 0 0
rwrist -11.7036 0 0
rhand -28.6448 -401.258 0
rfingers 7.12502 0 0
rthumb -2.00871 288.771 0
